<svg xmlns="http://www.w3.org/2000/svg" id="mainsvg" width="1325.8083007812502" height="782.2" viewBox="-10 -10 1205.2802734375 712"><defs><marker id="arrow" viewBox="0 0 10 10" refX="10" refY="5" markerWidth="5" markerHeight="5" orient="auto-start-reverse" fill="black"><path stroke="black" d="M 0 0 L 10 5 L 0 10 z"/></marker><marker id="Many" viewBox="0 0 16 16" refX="15" refY="8" markerWidth="15" markerHeight="15" orient="auto-start-reverse"><path stroke="black" d="M0 8H15M15 15L2 8L15 1" fill="none"/></marker><marker id="ZeroOrOne" viewBox="0 0 16 10" refX="15" refY="5" markerWidth="21" markerHeight="21" orient="auto-start-reverse"><path d="M9 5H16" stroke="black" fill="none"/><circle cx="5" cy="5" r="4.5" stroke="black" fill="#fff"/><path d="M12 0L12 10" stroke="black" fill="none"/></marker><marker id="OneOnlyOne" viewBox="0 0 10 14" refX="10" refY="7" markerWidth="13" markerHeight="13" orient="auto-start-reverse"><path d="M0 7H4M4 7H7M4 7V0M4 7V14M7 7H10M7 7V0M7 7V14" stroke="black" fill="none"/></marker><marker id="OneOrMany" viewBox="0 0 16 16" refX="15" refY="8" markerWidth="15" markerHeight="15" orient="auto-start-reverse"><path stroke="black" d="M2 1V15M2 8L15 15M2 8L15 1M2 8H0M2 8H15" fill="none"/></marker><marker id="ZeroOrMany" viewBox="0 0 25 16" refX="23" refY="8" markerWidth="25" markerHeight="25" orient="auto-start-reverse"><path d="M13 8H27M27 15L14 8L27 1" stroke="black" fill="none"/><path d="M13.5 7.5C13.5 10.7795 10.6254 13.5 7 13.5C3.37461 13.5 0.5 10.7795 0.5 7.5C0.5 4.22054 3.37461 1.5 7 1.5C10.6254 1.5 13.5 4.22054 13.5 7.5Z" stroke="black" fill="#fff"/></marker><marker id="aggregation" viewBox="0 0 10 6" refX="9.3" refY="2.8" markerWidth="23" markerHeight="15" orient="auto-start-reverse"><path stroke="black" fill="#fff" stroke-width="0.7" d="M1.01614 2.82609L5 0.574341L8.98386 2.82609L5 5.07783L1.01614 2.82609Z"/></marker><marker id="composition" viewBox="0 0 10 6" refX="9.7" refY="2.8" markerWidth="18" markerHeight="15" orient="auto-start-reverse"><path stroke="black" fill="black" d="M1.01614 2.82609L5 0.574341L8.98386 2.82609L5 5.07783L1.01614 2.82609Z"/></marker><marker id="implementation" viewBox="0 0 8 10" refX="8" refY="5" markerWidth="20" markerHeight="20" orient="auto-start-reverse"><path stroke="black" fill="#fff" stroke-width="0.7" d="M0.750001 1.10289L7.5 5L0.750001 8.89712L0.750001 1.10289Z"/></marker><marker id="dependency" viewBox="0 0 12 12" refX="11" refY="6" markerWidth="12" markerHeight="11" orient="auto-start-reverse"><path stroke="black" fill="#fff" d="M1 5.93162H10.886M10.886 5.93162L1 0.5M10.886 5.93162L1 11"/></marker><marker id="inheritance" viewBox="0 0 8 10" refX="8" refY="5" markerWidth="20" markerHeight="20" orient="auto-start-reverse"><path stroke="black" fill="#fff" stroke-width="0.7" d="M0.750001 1.10289L7.5 5L0.750001 8.89712L0.750001 1.10289Z"/></marker><marker id="association" viewBox="0 0 12 12" refX="11" refY="6" markerWidth="12" markerHeight="11" orient="auto-start-reverse"><path stroke="black" d="M1 5.93162H10.886M10.886 5.93162L1 0.5M10.886 5.93162L1 11"/></marker><filter id="shadowOLD" x="-50%" y="-50%" width="250%" height="250%"><feDropShadow flood-color="black" flood-opacity="0.3" dx="1" dy="1" stdDeviation="2"> </feDropShadow></filter><filter id="shadow-path" filterUnits="userSpaceOnUse" x="-10" y="-10" width="1205.2802734375px" height="702px"><feDropShadow flood-color="black" flood-opacity="0.1" dx="1" dy="1" stdDeviation="1"> </feDropShadow></filter><filter id="shadow" filterUnits="userSpaceOnUse" x="-10" y="-10" width="1305.2802734375px" height="802px"><feDropShadow flood-color="black" flood-opacity="0.1" dx="1" dy="1" stdDeviation="1"> </feDropShadow></filter></defs><rect x="-10" y="-10" width="1205.2802734375" height="702" fill="#fff"/><g transform="translate(0, 0)"><rect width="76.4609375" height="33" stroke="black" fill="white" stroke-width="2" transform="translate(0, 0)" rx="3"/><text fill="black" font-size="16" font-weight="normal" transform="translate(8, 8)" alignment-baseline="middle" font-family="Arial"><tspan x="0" dy="16" font-family="Arial" font-size="16" font-weight="normal">Terminal</tspan></text></g><g transform="translate(133.064453125, 0)"><rect width="113.8203125" height="33" stroke="black" fill="white" stroke-width="2" transform="translate(0, 0)" rx="3"/><text fill="black" font-size="16" font-weight="normal" transform="translate(8, 8)" alignment-baseline="middle" font-family="Arial"><tspan x="0" dy="16" font-family="Arial" font-size="16" font-weight="normal">Main (app.py)</tspan></text></g><g transform="translate(312.2412109375, 0)"><rect width="298.5" height="33" stroke="black" fill="white" stroke-width="2" transform="translate(0, 0)" rx="3"/><text fill="black" font-size="16" font-weight="normal" transform="translate(8, 8)" alignment-baseline="middle" font-family="Arial"><tspan x="0" dy="16" font-family="Arial" font-size="16" font-weight="normal">BookRepository (lib/book_repository.py)</tspan></text></g><g transform="translate(634.7412109375, 0)"><rect width="374.4609375" height="33" stroke="black" fill="white" stroke-width="2" transform="translate(0, 0)" rx="3"/><text fill="black" font-size="16" font-weight="normal" transform="translate(8, 8)" alignment-baseline="middle" font-family="Arial"><tspan x="0" dy="16" font-family="Arial" font-size="16" font-weight="normal">DatabaseConnection (lib/database_connection.py)</tspan></text></g><g transform="translate(1033.2021484375, 0)"><rect width="152.078125" height="33" stroke="black" fill="white" stroke-width="2" transform="translate(0, 0)" rx="3"/><text fill="black" font-size="16" font-weight="normal" transform="translate(8, 8)" alignment-baseline="middle" font-family="Arial"><tspan x="0" dy="16" font-family="Arial" font-size="16" font-weight="normal">Postgres Database</tspan></text></g><path d="M 38.23046875,72 L 189.974609375 72" fill="none" stroke="black" stroke-dasharray="none" stroke-width="2" marker-end="url(#arrow)"/><path d="M 189.974609375,80 L 203.974609375 80 L 203.974609375 103 L 189.974609375 103" fill="none" stroke="black" stroke-dasharray="none" stroke-width="2" marker-end="url(#arrow)"/><path d="M 189.974609375,142 L 821.9716796875 142" fill="none" stroke="black" stroke-dasharray="none" stroke-width="2" marker-end="url(#arrow)"/><path d="M 821.9716796875,177 L 1109.2412109375 177" fill="none" stroke="black" stroke-dasharray="none" stroke-width="2" marker-end="url(#arrow)"/><path d="M 1109.2412109375,212 L 821.9716796875 212" fill="none" stroke="black" stroke-dasharray="none" stroke-width="2" marker-end="url(#arrow)"/><path d="M 189.974609375,247 L 821.9716796875 247" fill="none" stroke="black" stroke-dasharray="none" stroke-width="2" marker-end="url(#arrow)"/><path d="M 821.9716796875,282 L 1109.2412109375 282" fill="none" stroke="black" stroke-dasharray="none" stroke-width="2" marker-end="url(#arrow)"/><path d="M 189.974609375,290 L 203.974609375 290 L 203.974609375 313 L 189.974609375 313" fill="none" stroke="black" stroke-dasharray="none" stroke-width="2" marker-end="url(#arrow)"/><path d="M 189.974609375,352 L 461.4912109375 352" fill="none" stroke="black" stroke-dasharray="none" stroke-width="2" marker-end="url(#arrow)"/><path d="M 461.4912109375,387 L 821.9716796875 387" fill="none" stroke="black" stroke-dasharray="none" stroke-width="2" marker-end="url(#arrow)"/><path d="M 821.9716796875,422 L 1109.2412109375 422" fill="none" stroke="black" stroke-dasharray="none" stroke-width="2" marker-end="url(#arrow)"/><path d="M 1109.2412109375,457 L 821.9716796875 457" fill="none" stroke="black" stroke-dasharray="none" stroke-width="2" marker-end="url(#arrow)"/><path d="M 821.9716796875,492 L 461.4912109375 492" fill="none" stroke="black" stroke-dasharray="none" stroke-width="2" marker-end="url(#arrow)"/><path d="M 461.4912109375,500 L 475.4912109375 500 L 475.4912109375 538 L 461.4912109375 538" fill="none" stroke="black" stroke-dasharray="none" stroke-width="2" marker-end="url(#arrow)"/><path d="M 461.4912109375,577 L 189.974609375 577" fill="none" stroke="black" stroke-dasharray="none" stroke-width="2" marker-end="url(#arrow)"/><path d="M 189.974609375,585 L 203.974609375 585 L 203.974609375 608 L 189.974609375 608" fill="none" stroke="black" stroke-dasharray="none" stroke-width="2" marker-end="url(#arrow)"/><path d="M 189.974609375,620 L 203.974609375 620 L 203.974609375 658 L 189.974609375 658" fill="none" stroke="black" stroke-dasharray="none" stroke-width="2" marker-end="url(#arrow)"/><path d="M 38.23046875,33 L 38.23046875 682" fill="none" stroke="black" stroke-dasharray="none" stroke-width="2"/><path d="M 189.974609375,33 L 189.974609375 682" fill="none" stroke="black" stroke-dasharray="none" stroke-width="2"/><path d="M 461.4912109375,33 L 461.4912109375 682" fill="none" stroke="black" stroke-dasharray="none" stroke-width="2"/><path d="M 821.9716796875,33 L 821.9716796875 682" fill="none" stroke="black" stroke-dasharray="none" stroke-width="2"/><path d="M 1109.2412109375,33 L 1109.2412109375 682" fill="none" stroke="black" stroke-dasharray="none" stroke-width="2"/><g transform="translate(62.23046875, 45)"><rect width="103.744140625" height="23" stroke="none" fill="white" stroke-width="0" transform="translate(0, 0)" rx="2"/><text fill="black" font-size="14" font-weight="normal" transform="translate(4, 4)" alignment-baseline="middle" font-family="Arial"><tspan x="0" dy="14" font-family="Arial" font-size="14" font-weight="normal">python3 app.py</tspan></text></g><g transform="translate(209.974609375, 80)"><rect width="244.591796875" height="23" stroke="none" fill="white" stroke-width="0" transform="translate(0, 0)" rx="2"/><text fill="black" font-size="14" font-weight="normal" transform="translate(4, 4)" alignment-baseline="middle" font-family="Arial"><tspan x="0" dy="14" font-family="Arial" font-size="14" font-weight="normal">creates DatabaseConnection instance</tspan></text></g><g transform="translate(376.68408203125, 115)"><rect width="258.578125" height="23" stroke="none" fill="white" stroke-width="0" transform="translate(0, 0)" rx="2"/><text fill="black" font-size="14" font-weight="normal" transform="translate(4, 4)" alignment-baseline="middle" font-family="Arial"><tspan x="0" dy="14" font-family="Arial" font-size="14" font-weight="normal">calls connect(), creates connection to db</tspan></text></g><g transform="translate(900.9033203125, 150)"><rect width="129.40625" height="23" stroke="none" fill="white" stroke-width="0" transform="translate(0, 0)" rx="2"/><text fill="black" font-size="14" font-weight="normal" transform="translate(4, 4)" alignment-baseline="middle" font-family="Arial"><tspan x="0" dy="14" font-family="Arial" font-size="14" font-weight="normal">attemps connection</tspan></text></g><g transform="translate(863.9482421875, 185)"><rect width="203.31640625" height="23" stroke="none" fill="white" stroke-width="0" transform="translate(0, 0)" rx="2"/><text fill="black" font-size="14" font-weight="normal" transform="translate(4, 4)" alignment-baseline="middle" font-family="Arial"><tspan x="0" dy="14" font-family="Arial" font-size="14" font-weight="normal">returns connection, if succesfull</tspan></text></g><g transform="translate(375.5185546875, 220)"><rect width="260.9091796875" height="23" stroke="none" fill="white" stroke-width="0" transform="translate(0, 0)" rx="2"/><text fill="black" font-size="14" font-weight="normal" transform="translate(4, 4)" alignment-baseline="middle" font-family="Arial"><tspan x="0" dy="14" font-family="Arial" font-size="14" font-weight="normal">calls seed(), creates table using seed file</tspan></text></g><g transform="translate(883.40673828125, 255)"><rect width="164.3994140625" height="23" stroke="none" fill="white" stroke-width="0" transform="translate(0, 0)" rx="2"/><text fill="black" font-size="14" font-weight="normal" transform="translate(4, 4)" alignment-baseline="middle" font-family="Arial"><tspan x="0" dy="14" font-family="Arial" font-size="14" font-weight="normal">creates table, if file exists</tspan></text></g><g transform="translate(209.974609375, 290)"><rect width="212.6611328125" height="23" stroke="none" fill="white" stroke-width="0" transform="translate(0, 0)" rx="2"/><text fill="black" font-size="14" font-weight="normal" transform="translate(4, 4)" alignment-baseline="middle" font-family="Arial"><tspan x="0" dy="14" font-family="Arial" font-size="14" font-weight="normal">creates BookRepository instance</tspan></text></g><g transform="translate(213.974609375, 325)"><rect width="223.5166015625" height="23" stroke="none" fill="white" stroke-width="0" transform="translate(0, 0)" rx="2"/><text fill="black" font-size="14" font-weight="normal" transform="translate(4, 4)" alignment-baseline="middle" font-family="Arial"><tspan x="0" dy="14" font-family="Arial" font-size="14" font-weight="normal">calls all(), to get all rows from table</tspan></text></g><g transform="translate(512.83203125, 360)"><rect width="257.798828125" height="23" stroke="none" fill="white" stroke-width="0" transform="translate(0, 0)" rx="2"/><text fill="black" font-size="14" font-weight="normal" transform="translate(4, 4)" alignment-baseline="middle" font-family="Arial"><tspan x="0" dy="14" font-family="Arial" font-size="14" font-weight="normal">calls execute(), to send SQL query to db</tspan></text></g><g transform="translate(907.5205078125, 395)"><rect width="116.171875" height="23" stroke="none" fill="white" stroke-width="0" transform="translate(0, 0)" rx="2"/><text fill="black" font-size="14" font-weight="normal" transform="translate(4, 4)" alignment-baseline="middle" font-family="Arial"><tspan x="0" dy="14" font-family="Arial" font-size="14" font-weight="normal">sends SQL query</tspan></text></g><g transform="translate(854.22412109375, 430)"><rect width="222.7646484375" height="23" stroke="none" fill="white" stroke-width="0" transform="translate(0, 0)" rx="2"/><text fill="black" font-size="14" font-weight="normal" transform="translate(4, 4)" alignment-baseline="middle" font-family="Arial"><tspan x="0" dy="14" font-family="Arial" font-size="14" font-weight="normal">returns query result as a dictionary</tspan></text></g><g transform="translate(572.8173828125, 465)"><rect width="137.828125" height="23" stroke="none" fill="white" stroke-width="0" transform="translate(0, 0)" rx="2"/><text fill="black" font-size="14" font-weight="normal" transform="translate(4, 4)" alignment-baseline="middle" font-family="Arial"><tspan x="0" dy="14" font-family="Arial" font-size="14" font-weight="normal">stores result in 'rows'</tspan></text></g><g transform="translate(481.4912109375, 500)"><rect width="238.2412109375" height="38" stroke="none" fill="white" stroke-width="0" transform="translate(0, 0)" rx="2"/><text fill="black" font-size="14" font-weight="normal" transform="translate(4, 4)" alignment-baseline="middle" font-family="Arial"><tspan x="0" dy="14" font-family="Arial" font-size="14" font-weight="normal">loops through 'rows' storing each row</tspan><tspan x="0" dy="14" font-family="Arial" font-size="14" font-weight="normal">in a list of Book instances</tspan></text></g><g transform="translate(240.02978515625, 550)"><rect width="171.40625" height="23" stroke="none" fill="white" stroke-width="0" transform="translate(0, 0)" rx="2"/><text fill="black" font-size="14" font-weight="normal" transform="translate(4, 4)" alignment-baseline="middle" font-family="Arial"><tspan x="0" dy="14" font-family="Arial" font-size="14" font-weight="normal">returns Book instances list</tspan></text></g><g transform="translate(209.974609375, 585)"><rect width="118.3935546875" height="23" stroke="none" fill="white" stroke-width="0" transform="translate(0, 0)" rx="2"/><text fill="black" font-size="14" font-weight="normal" transform="translate(4, 4)" alignment-baseline="middle" font-family="Arial"><tspan x="0" dy="14" font-family="Arial" font-size="14" font-weight="normal">stores it in 'books'</tspan></text></g><g transform="translate(209.974609375, 620)"><rect width="239.0546875" height="38" stroke="none" fill="white" stroke-width="0" transform="translate(0, 0)" rx="2"/><text fill="black" font-size="14" font-weight="normal" transform="translate(4, 4)" alignment-baseline="middle" font-family="Arial"><tspan x="0" dy="14" font-family="Arial" font-size="14" font-weight="normal">loops through 'books' and prints each</tspan><tspan x="0" dy="14" font-family="Arial" font-size="14" font-weight="normal">book individually with its atributes</tspan></text></g></svg>